<svg width="20" height="20" viewBox="0 0 20 20" fill="none" xmlns="http://www.w3.org/2000/svg">
<g clip-path="url(#clip0_3522_87)">
<path d="M18.7379 9.14583L10.0004 14.3892L1.26295 9.14583C1.07343 9.03212 0.846499 8.99835 0.632083 9.05195C0.417666 9.10556 0.233325 9.24214 0.119614 9.43166C0.00590231 9.62118 -0.0278657 9.84811 0.0257385 10.0625C0.0793426 10.2769 0.215928 10.4613 0.405447 10.575L9.57211 16.075C9.70172 16.1529 9.85008 16.194 10.0013 16.194C10.1525 16.194 10.3008 16.1529 10.4304 16.075L19.5971 10.575C19.7866 10.4613 19.9232 10.2769 19.9768 10.0625C20.0304 9.84811 19.9967 9.62118 19.8829 9.43166C19.7692 9.24214 19.5849 9.10556 19.3705 9.05195C19.1561 8.99835 18.9291 9.03212 18.7396 9.14583H18.7379Z" fill="#202020"/>
<path d="M18.7379 12.9525L10.0004 18.195L1.26294 12.9525C1.1691 12.8962 1.06509 12.8589 0.956849 12.8428C0.848605 12.8267 0.738248 12.8321 0.63208 12.8586C0.525912 12.8852 0.426011 12.9324 0.338081 12.9975C0.250152 13.0627 0.175916 13.1445 0.119611 13.2383C0.0633071 13.3322 0.0260375 13.4362 0.00993028 13.5444C-0.00617689 13.6527 -0.00080611 13.763 0.025736 13.8692C0.0793401 14.0836 0.215925 14.268 0.405445 14.3817L9.57211 19.8817C9.70172 19.9595 9.85008 20.0007 10.0013 20.0007C10.1525 20.0007 10.3008 19.9595 10.4304 19.8817L19.5971 14.3817C19.7866 14.268 19.9232 14.0836 19.9768 13.8692C20.0304 13.6548 19.9967 13.4279 19.8829 13.2383C19.7692 13.0488 19.5849 12.9122 19.3705 12.8586C19.1561 12.805 18.9291 12.8388 18.7396 12.9525H18.7379Z" fill="#202020"/>
<path d="M9.99974 12.3108C9.55022 12.3106 9.10922 12.1882 8.7239 11.9567L0.403903 6.96416C0.280693 6.89007 0.178745 6.78537 0.10797 6.66023C0.0371952 6.53508 0 6.39376 0 6.24999C0 6.10622 0.0371952 5.9649 0.10797 5.83976C0.178745 5.71461 0.280693 5.60991 0.403903 5.53582L8.7239 0.543324C9.10921 0.311848 9.55024 0.18956 9.99974 0.18956C10.4492 0.18956 10.8903 0.311848 11.2756 0.543324L19.5956 5.53582C19.7188 5.60991 19.8207 5.71461 19.8915 5.83976C19.9623 5.9649 19.9995 6.10622 19.9995 6.24999C19.9995 6.39376 19.9623 6.53508 19.8915 6.66023C19.8207 6.78537 19.7188 6.89007 19.5956 6.96416L11.2756 11.9567C10.8902 12.1882 10.4493 12.3106 9.99974 12.3108ZM2.45307 6.24999L9.58307 10.5275C9.709 10.6028 9.85299 10.6426 9.99974 10.6426C10.1465 10.6426 10.2905 10.6028 10.4164 10.5275L17.5464 6.24999L10.4164 1.97249C10.2905 1.89716 10.1465 1.85738 9.99974 1.85738C9.85299 1.85738 9.709 1.89716 9.58307 1.97249L2.45307 6.24999Z" fill="#202020"/>
</g>
<defs>
<clipPath id="clip0_3522_87">
<rect width="20" height="20" fill="white"/>
</clipPath>
</defs>
</svg>
