<svg width="7" height="12" viewBox="0 0 7 12" fill="none" xmlns="http://www.w3.org/2000/svg">
<path d="M2.33334 6.59168C2.25523 6.51421 2.19323 6.42204 2.15093 6.32049C2.10862 6.21894 2.08684 6.11002 2.08684 6.00001C2.08684 5.89 2.10862 5.78108 2.15093 5.67953C2.19323 5.57798 2.25523 5.48581 2.33334 5.40834L6.15834 1.59168C6.23644 1.51421 6.29844 1.42204 6.34075 1.32049C6.38305 1.21894 6.40484 1.11002 6.40484 1.00001C6.40484 0.89 6.38305 0.781078 6.34075 0.679529C6.29844 0.577979 6.23644 0.485812 6.15834 0.408343C6.0022 0.253134 5.79099 0.166016 5.57084 0.166016C5.35068 0.166016 5.13947 0.253134 4.98334 0.408343L1.15834 4.23334C0.690169 4.70209 0.427204 5.33751 0.427204 6.00001C0.427204 6.66251 0.690169 7.29793 1.15834 7.76668L4.98334 11.5917C5.13855 11.7456 5.34805 11.8324 5.56667 11.8333C5.67634 11.834 5.78506 11.813 5.88659 11.7715C5.98812 11.73 6.08047 11.6689 6.15834 11.5917C6.23644 11.5142 6.29844 11.422 6.34075 11.3205C6.38305 11.2189 6.40484 11.11 6.40484 11C6.40484 10.89 6.38305 10.7811 6.34075 10.6795C6.29844 10.578 6.23644 10.4858 6.15834 10.4083L2.33334 6.59168Z" fill="#2563EB"/>
</svg>
