<svg width="167" height="32" viewBox="0 0 167 32" fill="none" xmlns="http://www.w3.org/2000/svg">
<path d="M49.1126 17.5682L52.1563 8.90519L55.2004 17.5682H49.1126ZM50.6513 4.08054L41.02 27.2752H45.125L47.7671 21.0976H56.7099L59.2554 27.2752H63.3556L53.6617 4.08054H50.6513Z" fill="#1E1B4B"/>
<path d="M67.6534 22.6709L63.2736 10.094H59.2748L66.1803 27.2752H69.1214L76.0265 10.094H71.9648L67.6534 22.6709Z" fill="#1E1B4B"/>
<path d="M79.3138 17.1724C79.9361 14.5196 81.8802 12.8757 84.7798 12.9047C87.7968 12.8812 89.7084 14.5018 90.1884 17.1724H79.3138ZM84.7148 9.66545C76.6311 9.61251 72.5208 19.508 78.3046 25.1306C82.4286 29.2593 90.7375 28.4003 93.0254 22.7059H88.9928C87.8608 23.984 86.6922 24.4857 84.877 24.4857C81.9753 24.497 79.9097 22.8118 79.4684 20.2505H93.5307C94.3452 14.7228 90.4162 9.58109 84.7148 9.66545Z" fill="#1E1B4B"/>
<path d="M104.48 9.66651C102.253 9.61298 100.686 10.5987 99.0654 12.2735V10.0862H95.7853V27.2752H99.3896V19.1976C99.3896 16.6922 99.5687 15.6441 100.158 14.7116C100.905 13.5435 102.14 12.9001 103.636 12.9001C105.978 12.9001 107.43 13.8998 107.43 18.8747V27.2752H111.034V18.0349C111.034 14.9135 110.722 13.416 109.799 12.0982C108.693 10.5073 106.854 9.66651 104.48 9.66651Z" fill="#1E1B4B"/>
<path d="M118.297 4.08054H114.663V10.0641H112.537V13.2698H114.663V27.2752H118.297V13.2698H120.913V10.0641H118.297V4.08054Z" fill="#1E1B4B"/>
<path d="M122.846 27.2752H126.464V10.0641H122.846V27.2752ZM122.878 7.67473H126.497V4.08054H122.878V7.67473Z" fill="#1E1B4B"/>
<path d="M135.711 17.0498C132.792 16.1222 132.417 16.0031 132.417 14.7735C132.409 12.5712 135.816 12.1779 136.386 14.3232H139.941C139.677 11.5167 137.217 9.63543 134.425 9.66477C131.279 9.66477 128.815 11.9087 128.815 14.7735C128.815 16.0137 129.153 16.9481 129.878 17.7148C130.621 18.5015 131.794 19.145 133.566 19.7396C136.394 20.6901 136.855 21.0586 136.855 22.3694C136.855 23.5662 135.866 24.4686 134.555 24.4686C133.201 24.4686 132.371 23.7982 131.892 22.3029H128.215C128.709 25.7627 130.889 27.7135 134.393 27.7047C137.793 27.7047 140.457 25.1766 140.457 21.9491C140.457 20.653 140.151 19.7475 139.466 19.0143C138.746 18.2439 137.553 17.6196 135.711 17.0498Z" fill="#1E1B4B"/>
<path d="M142.207 7.67473H145.826V4.08054H142.207V7.67473ZM142.175 27.2752H145.793V10.0641H142.175V27.2752Z" fill="#1E1B4B"/>
<path d="M157.161 24.4623C153.858 24.4623 151.551 22.1531 151.551 18.8463C151.569 10.9473 162.639 10.9609 162.674 18.8139C162.674 22.1398 160.407 24.4623 157.161 24.4623ZM162.803 10.0943V13.1857L162.172 12.3429C159.605 8.48538 153.282 9.10324 150.408 12.2345C147.188 15.4145 147.142 21.9884 150.383 25.1749C152.516 27.5193 156.733 28.4196 159.655 27.082C160.751 26.6264 161.911 25.4469 162.803 24.3703V27.2752H166.013V10.0943H162.803Z" fill="#1E1B4B"/>
<path d="M9.55484 26.7423C7.20039 26.7423 5.28922 24.8265 5.28922 22.4656C5.52765 16.7971 13.5803 16.7988 13.8205 22.4656C13.8205 24.8265 11.9052 26.7423 9.55484 26.7423ZM9.55484 12.8859C4.28699 12.8859 0 17.1841 0 22.4656C0.524343 35.1822 18.5901 35.174 19.1141 22.4656C19.1141 17.1841 14.8227 12.8859 9.55484 12.8859Z" fill="#4F46E5"/>
<path d="M36.296 30.9262L28.7925 30.8667L14.7057 6.46564L12.3234 10.5925L8.59131 4.12687L10.974 0.0034008V0H18.4411L36.296 30.9262Z" fill="#4F46E5"/>
</svg>
