<svg width="7" height="12" viewBox="0 0 7 12" fill="none" xmlns="http://www.w3.org/2000/svg">
<path d="M4.66668 5.40832C4.74479 5.48579 4.80678 5.57796 4.84909 5.67951C4.8914 5.78106 4.91318 5.88998 4.91318 5.99999C4.91318 6.11 4.8914 6.21892 4.84909 6.32047C4.80678 6.42202 4.74479 6.51419 4.66668 6.59166L0.841682 10.4083C0.763575 10.4858 0.701579 10.578 0.659272 10.6795C0.616965 10.7811 0.595183 10.89 0.595183 11C0.595183 11.11 0.616965 11.2189 0.659272 11.3205C0.701579 11.422 0.763575 11.5142 0.841682 11.5917C0.997817 11.7469 1.20903 11.834 1.42918 11.834C1.64934 11.834 1.86055 11.7469 2.01668 11.5917L5.84168 7.76666C6.30985 7.29791 6.57282 6.66249 6.57282 5.99999C6.57282 5.33749 6.30985 4.70207 5.84168 4.23332L2.01668 0.408324C1.86147 0.25437 1.65197 0.167577 1.43335 0.166656C1.32368 0.166022 1.21496 0.187043 1.11343 0.228513C1.0119 0.269984 0.91955 0.331089 0.841683 0.408324C0.763576 0.485793 0.70158 0.57796 0.659273 0.679509C0.616965 0.781058 0.595184 0.88998 0.595184 0.99999C0.595184 1.11 0.616965 1.21892 0.659273 1.32047C0.70158 1.42202 0.763576 1.51419 0.841683 1.59166L4.66668 5.40832Z" fill="#2563EB"/>
</svg>
