<svg width="20" height="20" viewBox="0 0 20 20" fill="none" xmlns="http://www.w3.org/2000/svg">
<path d="M10.7071 3.33334H9.29296C8.51195 3.33334 7.87881 3.9303 7.87881 4.66668C7.87881 5.50935 6.97719 6.0451 6.23707 5.64221L6.1619 5.60129C5.48552 5.2331 4.62064 5.4516 4.23014 6.08932L3.52306 7.24402C3.13256 7.88175 3.3643 8.6972 4.04068 9.06539C4.78115 9.46847 4.78115 10.5315 4.04068 10.9346C3.3643 11.3028 3.13256 12.1183 3.52306 12.756L4.23014 13.9107C4.62064 14.5484 5.48552 14.7669 6.1619 14.3987L6.23707 14.3578C6.9772 13.9549 7.87881 14.4907 7.87881 15.3333C7.87881 16.0697 8.51195 16.6667 9.29296 16.6667H10.7071C11.4881 16.6667 12.1213 16.0697 12.1213 15.3333C12.1213 14.4907 13.0229 13.9549 13.763 14.3578L13.8382 14.3987C14.5145 14.7669 15.3794 14.5484 15.7699 13.9107L16.477 12.756C16.8675 12.1183 16.6358 11.3028 15.9594 10.9346C15.2189 10.5315 15.2189 9.46848 15.9594 9.0654C16.6358 8.69721 16.8675 7.88176 16.477 7.24403L15.7699 6.08933C15.3794 5.45161 14.5145 5.23311 13.8382 5.6013L13.763 5.64222C13.0229 6.04511 12.1213 5.50936 12.1213 4.66668C12.1213 3.9303 11.4881 3.33334 10.7071 3.33334Z" stroke="#202020" stroke-width="1.5" stroke-linejoin="round"/>
<circle cx="10" cy="10" r="2.5" stroke="#202020" stroke-width="1.5"/>
</svg>
