<svg width="20" height="20" viewBox="0 0 20 20" fill="none" xmlns="http://www.w3.org/2000/svg">
<path d="M13.3333 3.33334H14.1667C16.0076 3.33334 17.5 4.82572 17.5 6.66667V15C17.5 16.841 16.0076 18.3333 14.1667 18.3333H5.83333C3.99238 18.3333 2.5 16.841 2.5 15V6.66667C2.5 4.82572 3.99238 3.33334 5.83333 3.33334H6.66667M13.3333 3.33334C13.3333 4.25381 12.5871 5.00001 11.6667 5.00001H8.33333C7.41286 5.00001 6.66667 4.25381 6.66667 3.33334M13.3333 3.33334C13.3333 2.41286 12.5871 1.66667 11.6667 1.66667H8.33333C7.41286 1.66667 6.66667 2.41286 6.66667 3.33334M6.66667 8.33334H13.3333M6.66667 11.6667H13.3333M6.66667 15H10" stroke="#202020" stroke-width="1.8" stroke-linecap="round"/>
</svg>
