<svg width="20" height="20" viewBox="0 0 20 20" fill="none" xmlns="http://www.w3.org/2000/svg">
<path d="M5.83329 5.83333V4.16667C5.83329 3.24619 6.57949 2.5 7.49996 2.5H16.6666C17.5871 2.5 18.3333 3.24619 18.3333 4.16667V11.6667C18.3333 12.5871 17.5871 13.3333 16.6666 13.3333H12.5M9.16663 6.25H15M11.6666 9.58333H15M4.65478 13.8215C5.30566 14.4724 6.36093 14.4724 7.0118 13.8215C7.32436 13.5089 7.74829 13.3333 8.19032 13.3333H8.33329C9.25377 13.3333 9.99996 14.0795 9.99996 15V15.8333C9.99996 16.7538 9.25377 17.5 8.33329 17.5H3.33329C2.41282 17.5 1.66663 16.7538 1.66663 15.8333V15C1.66663 14.0795 2.41282 13.3333 3.33329 13.3333H3.47627C3.9183 13.3333 4.34222 13.5089 4.65478 13.8215ZM7.49996 10C7.49996 10.9205 6.75377 11.6667 5.83329 11.6667C4.91282 11.6667 4.16663 10.9205 4.16663 10C4.16663 9.07953 4.91282 8.33333 5.83329 8.33333C6.75377 8.33333 7.49996 9.07953 7.49996 10Z" stroke="#202020" stroke-width="1.5" stroke-linecap="round"/>
</svg>
