<svg width="20" height="20" viewBox="0 0 20 20" fill="none" xmlns="http://www.w3.org/2000/svg">
<g clip-path="url(#clip0_3522_66)">
<path d="M1.66663 3.33333C1.66663 2.41286 2.41282 1.66667 3.33329 1.66667H6.66663C7.5871 1.66667 8.33329 2.41286 8.33329 3.33333V6.66667C8.33329 7.58714 7.5871 8.33333 6.66663 8.33333H3.33329C2.41282 8.33333 1.66663 7.58714 1.66663 6.66667V3.33333Z" stroke="#F8FAFC" stroke-width="1.5" stroke-linejoin="round"/>
<path d="M11.6666 3.33333C11.6666 2.41286 12.4128 1.66667 13.3333 1.66667H16.6666C17.5871 1.66667 18.3333 2.41286 18.3333 3.33333V6.66667C18.3333 7.58714 17.5871 8.33333 16.6666 8.33333H13.3333C12.4128 8.33333 11.6666 7.58714 11.6666 6.66667V3.33333Z" stroke="#F8FAFC" stroke-width="1.5" stroke-linejoin="round"/>
<path d="M1.66663 13.3333C1.66663 12.4129 2.41282 11.6667 3.33329 11.6667H6.66663C7.5871 11.6667 8.33329 12.4129 8.33329 13.3333V16.6667C8.33329 17.5871 7.5871 18.3333 6.66663 18.3333H3.33329C2.41282 18.3333 1.66663 17.5871 1.66663 16.6667V13.3333Z" stroke="#F8FAFC" stroke-width="1.5" stroke-linejoin="round"/>
<path d="M11.6666 13.3333C11.6666 12.4129 12.4128 11.6667 13.3333 11.6667H16.6666C17.5871 11.6667 18.3333 12.4129 18.3333 13.3333V16.6667C18.3333 17.5871 17.5871 18.3333 16.6666 18.3333H13.3333C12.4128 18.3333 11.6666 17.5871 11.6666 16.6667V13.3333Z" stroke="#F8FAFC" stroke-width="1.5" stroke-linejoin="round"/>
</g>
<defs>
<clipPath id="clip0_3522_66">
<rect width="20" height="20" fill="white"/>
</clipPath>
</defs>
</svg>
