<svg width="44" height="44" viewBox="0 0 44 44" fill="none" xmlns="http://www.w3.org/2000/svg">
<rect x="0.75" y="0.75" width="42.5" height="42.5" rx="21.25" stroke="#EAEAEA" stroke-width="1.5"/>
<path d="M28.2395 18.9752L27.3453 19.0767L28.2395 18.9752ZM28.6867 22.9153L29.581 22.8138L28.6867 22.9153ZM15.3133 22.9153L14.419 22.8138L15.3133 22.9153ZM15.7605 18.9752L16.6547 19.0767L15.7605 18.9752ZM14.4478 24.8721L13.7625 24.2887L13.7625 24.2887L14.4478 24.8721ZM29.5522 24.8721L28.8669 25.4555V25.4555L29.5522 24.8721ZM24.2699 14.3737H23.3699C23.3699 14.7584 23.6145 15.1005 23.9784 15.2251L24.2699 14.3737ZM19.7301 14.3737L20.0216 15.2251C20.3855 15.1005 20.6301 14.7584 20.6301 14.3737H19.7301ZM25.8428 30.3158C26.0172 29.8504 25.7813 29.3317 25.3158 29.1572C24.8504 28.9828 24.3317 29.2187 24.1572 29.6842L25.8428 30.3158ZM19.8428 29.6842C19.6683 29.2187 19.1496 28.9828 18.6842 29.1572C18.2187 29.3317 17.9828 29.8504 18.1572 30.3158L19.8428 29.6842ZM27.7772 27.1H16.2228V28.9H27.7772V27.1ZM27.3453 19.0767L27.7925 23.0168L29.581 22.8138L29.1338 18.8737L27.3453 19.0767ZM16.2075 23.0168L16.6547 19.0767L14.8662 18.8737L14.419 22.8138L16.2075 23.0168ZM15.1331 25.4555C15.7288 24.7557 16.1058 23.9132 16.2075 23.0168L14.419 22.8138C14.3597 23.3366 14.1381 23.8474 13.7625 24.2887L15.1331 25.4555ZM27.7925 23.0168C27.8942 23.9132 28.2712 24.7557 28.8669 25.4555L30.2375 24.2887C29.8619 23.8474 29.6403 23.3366 29.581 22.8138L27.7925 23.0168ZM16.2228 27.1C15.6196 27.1 15.2072 26.8032 15.021 26.4751C14.8437 26.1627 14.8447 25.7943 15.1331 25.4555L13.7625 24.2887C12.9538 25.2387 12.9281 26.4342 13.4555 27.3635C13.974 28.2772 14.9976 28.9 16.2228 28.9V27.1ZM27.7772 28.9C29.0024 28.9 30.026 28.2772 30.5445 27.3635C31.0719 26.4342 31.0462 25.2387 30.2375 24.2887L28.8669 25.4555C29.1553 25.7943 29.1563 26.1627 28.979 26.4751C28.7928 26.8032 28.3804 27.1 27.7772 27.1V28.9ZM25.1699 14.3737V14.2699H23.3699V14.3737H25.1699ZM29.1338 18.8737C28.8469 16.3462 26.9742 14.3483 24.5615 13.5222L23.9784 15.2251C25.8505 15.8661 27.1499 17.3551 27.3453 19.0767L29.1338 18.8737ZM20.6301 14.3737V14.2699H18.8301V14.3737H20.6301ZM16.6547 19.0767C16.8501 17.3551 18.1495 15.8661 20.0216 15.2251L19.4385 13.5222C17.0258 14.3483 15.1531 16.3462 14.8662 18.8737L16.6547 19.0767ZM22 12.9C22.7566 12.9 23.3699 13.5133 23.3699 14.2699H25.1699C25.1699 12.5192 23.7507 11.1 22 11.1V12.9ZM22 11.1C20.2493 11.1 18.8301 12.5192 18.8301 14.2699H20.6301C20.6301 13.5133 21.2434 12.9 22 12.9V11.1ZM24.1572 29.6842C23.8573 30.4844 23.0245 31.1 22 31.1V32.9C23.7456 32.9 25.2693 31.846 25.8428 30.3158L24.1572 29.6842ZM22 31.1C20.9755 31.1 20.1427 30.4844 19.8428 29.6842L18.1572 30.3158C18.7307 31.846 20.2544 32.9 22 32.9V31.1Z" fill="#202020"/>
<rect x="31" y="1" width="12" height="12" rx="6" fill="#FBBF24"/>
<path d="M35.0597 10V9.36364L37.0284 7.32386C37.2386 7.10227 37.4119 6.90814 37.5483 6.74148C37.6866 6.57292 37.7898 6.41288 37.858 6.26136C37.9261 6.10985 37.9602 5.94886 37.9602 5.77841C37.9602 5.58523 37.9148 5.41856 37.8239 5.27841C37.733 5.13636 37.6089 5.02746 37.4517 4.9517C37.2945 4.87405 37.1174 4.83523 36.9205 4.83523C36.7121 4.83523 36.5303 4.87784 36.375 4.96307C36.2197 5.0483 36.1004 5.16856 36.017 5.32386C35.9337 5.47917 35.892 5.66098 35.892 5.86932H35.054C35.054 5.51515 35.1354 5.20549 35.2983 4.94034C35.4612 4.67519 35.6847 4.4697 35.9688 4.32386C36.2528 4.17614 36.5758 4.10227 36.9375 4.10227C37.303 4.10227 37.625 4.17519 37.9034 4.32102C38.1837 4.46496 38.4025 4.66193 38.5597 4.91193C38.7169 5.16004 38.7955 5.44034 38.7955 5.75284C38.7955 5.96875 38.7547 6.17992 38.6733 6.38636C38.5938 6.5928 38.4545 6.82292 38.2557 7.0767C38.0568 7.3286 37.7803 7.63447 37.4261 7.99432L36.2699 9.20455V9.24716H38.8892V10H35.0597Z" fill="#202020"/>
</svg>
