<svg width="14" height="36" viewBox="0 0 14 36" fill="none" xmlns="http://www.w3.org/2000/svg">
<path d="M0 8C0 3.58172 3.58172 0 8 0H13.9776V35.6673H8C3.58172 35.6673 0 32.0856 0 27.6673V8Z" fill="white"/>
<path d="M5.90613 18.4257C5.82803 18.3482 5.76603 18.256 5.72372 18.1545C5.68142 18.0529 5.65963 17.944 5.65963 17.834C5.65963 17.724 5.68142 17.6151 5.72372 17.5135C5.76603 17.412 5.82803 17.3198 5.90613 17.2423L9.73113 13.4257C9.80924 13.3482 9.87124 13.256 9.91354 13.1545C9.95585 13.0529 9.97763 12.944 9.97763 12.834C9.97763 12.724 9.95585 12.6151 9.91354 12.5135C9.87124 12.412 9.80924 12.3198 9.73113 12.2423C9.575 12.0871 9.36379 12 9.14363 12C8.92348 12 8.71227 12.0871 8.55613 12.2423L4.73113 16.0673C4.26296 16.5361 4 17.1715 4 17.834C4 18.4965 4.26296 19.1319 4.73113 19.6007L8.55613 23.4257C8.71135 23.5796 8.92085 23.6664 9.13947 23.6673C9.24914 23.668 9.35786 23.6469 9.45939 23.6055C9.56092 23.564 9.65327 23.5029 9.73113 23.4257C9.80924 23.3482 9.87124 23.256 9.91354 23.1545C9.95585 23.0529 9.97763 22.944 9.97763 22.834C9.97763 22.724 9.95585 22.6151 9.91354 22.5135C9.87124 22.412 9.80924 22.3198 9.73113 22.2423L5.90613 18.4257Z" fill="#2563EB"/>
</svg>
